HIERARCHY
ROOT pelvis
{
	OFFSET 0.00 0.00 0.00
	CHANNELS 6 Xposition Yposition Zposition Zrotation Xrotation Yrotation
	JOINT lfemur
	{
		OFFSET 0 0.102435 0
		CHANNELS 3 Zrotation Xrotation Yrotation
		JOINT ltibia
		{
			OFFSET 0 0 -0.433964
			CHANNELS 3 Zrotation Xrotation Yrotation
			JOINT lfoot
			{
				OFFSET 0 0 -0.408841
				CHANNELS 3 Zrotation Xrotation Yrotation
				JOINT ltoes
				{
					OFFSET 0.105892 0 -0.009733
					CHANNELS 3 Zrotation Xrotation Yrotation
					End Site5
					{
						OFFSET 1e-005 1e-005 1e-005
					}
				}
			}
		}
	}
	JOINT rfemur
	{
		OFFSET 0 -0.102435 0
		CHANNELS 3 Zrotation Xrotation Yrotation
		JOINT rtibia
		{
			OFFSET 0 0 -0.435577
			CHANNELS 3 Zrotation Xrotation Yrotation
			JOINT rfoot
			{
				OFFSET 0 0 -0.384964
				CHANNELS 3 Zrotation Xrotation Yrotation
				JOINT rtoes
				{
					OFFSET 0.092084 0 -0.017313
					CHANNELS 3 Zrotation Xrotation Yrotation
					End Site10
					{
						OFFSET 1e-005 1e-005 1e-005
					}
				}
			}
		}
	}
	JOINT lowerback
	{
		OFFSET -0.05 0 0.099766
		CHANNELS 3 Zrotation Xrotation Yrotation
		JOINT upperback
		{
			OFFSET 0.021227 0 0.177904
			CHANNELS 3 Zrotation Xrotation Yrotation
			JOINT lclavicle
			{
				OFFSET 0 0 0.169023
				CHANNELS 3 Zrotation Xrotation Yrotation
				JOINT lhumerus
				{
					OFFSET 0 0.13809 0.008263
					CHANNELS 3 Zrotation Xrotation Yrotation
					JOINT lradius
					{
						OFFSET 0 0 -0.278741
						CHANNELS 3 Zrotation Xrotation Yrotation
						JOINT lhand
						{
							OFFSET 0 0 -0.226576
							CHANNELS 3 Zrotation Xrotation Yrotation
							End Site17
							{
								OFFSET 1e-005 1e-005 1e-005
							}
						}
					}
				}
			}
			JOINT rclavicle
			{
				OFFSET 0 0 0.169023
				CHANNELS 3 Zrotation Xrotation Yrotation
				JOINT rhumerus
				{
					OFFSET 0 -0.145722 -0.001526
					CHANNELS 3 Zrotation Xrotation Yrotation
					JOINT rradius
					{
						OFFSET 0 0 -0.281968
						CHANNELS 3 Zrotation Xrotation Yrotation
						JOINT rhand
						{
							OFFSET 0 0 -0.23225
							CHANNELS 3 Zrotation Xrotation Yrotation
							End Site22
							{
								OFFSET 1e-005 1e-005 1e-005
							}
						}
					}
				}
			}
			JOINT LowerNeck
			{
				OFFSET 0 0 0.169023
				CHANNELS 3 Zrotation Xrotation Yrotation
				JOINT Neck
				{
					OFFSET 0.000307 0.00093 0.101417
					CHANNELS 3 Zrotation Xrotation Yrotation
					End Site25
					{
						OFFSET 1e-005 1e-005 1e-005
					}
				}
			}
		}
	}
}
MOTION
Frames: 10
Frame Time: 0.033368
0.696039	-2.9122	0.869221	86.497	-0.31778	-0.646214	-4.76204	-5.12676	1.38382	6.65516	0.79382	6.77149	5.17869	6.07453	4.42131	-7e-006	-2e-006	13.8779	13.128	2.70693	1.77263	-6.80533	-0.423691	3.54579	-4.03163	-5.20617	7.16189	-1e-005	-4e-006	13.3957	-0.463659	-0.211412	-1.1149	-3.46985	-1.00209	-2.62318	0.658065	-10.6751	0.121905	-42.0275	21.612	18.1513	-3.90091	1.92873	-26.2698	-1e-006	-2.75499	-5.88106	7.94156	11.6011	-1.60691	45.0947	-20.461	17.8096	3.32867	-1.07286	-17.8448	-9e-006	-2.14715	-5.27685	-9.59364	6.89123	17.4183	3.76513	-11.8514	-31.6858
0.695907	-2.9117	0.869065	86.4835	-0.264963	-0.611444	-4.78846	-5.19798	1.3754	6.65056	0.792087	6.76152	5.25044	6.1557	4.40393	1.6e-005	-2e-006	13.8463	13.0425	2.64506	1.76741	-6.91824	-0.434409	3.57551	-3.92311	-5.02057	6.91662	4e-006	-1e-006	13.5875	-0.460305	-0.313455	-1.16703	-3.52614	-0.961885	-2.57701	0.733534	-10.6684	0.135804	-42.0212	21.6311	18.1442	-3.71961	1.84386	-26.3323	-4e-006	-2.5434	-6.01355	7.95577	11.6274	-1.61342	45.0921	-20.5269	17.7918	3.25457	-1.04867	-17.8408	-0	-2.14825	-5.29068	-9.69384	6.92843	17.5381	3.91429	-12.0249	-31.6786
0.695795	-2.91114	0.868965	86.468	-0.25379	-0.589759	-4.75717	-5.2259	1.37555	6.57007	0.786105	6.79311	5.35141	6.26417	4.35425	1e-006	2e-006	13.8258	13.0751	2.62717	1.79688	-7.00104	-0.43709	3.55467	-3.87794	-4.9458	6.82342	-3e-006	1.76574e-014	13.6349	-0.46607	-0.360566	-1.18277	-3.56413	-0.937894	-2.5756	0.7723	-10.6922	0.143292	-42.0454	21.6091	18.1925	-3.31214	1.64673	-26.4071	-7e-006	-1.993	-6.34768	7.96201	11.6258	-1.61448	45.0851	-20.5511	17.7652	3.26225	-1.05095	-17.8376	-1.4e-005	-2.21865	-5.3	-9.74609	6.95007	17.6749	4.09673	-12.1528	-31.6498
0.695594	-2.9106	0.868877	86.487	-0.262416	-0.527254	-4.7808	-5.23794	1.28917	6.51969	0.793364	6.90817	5.43189	6.33972	4.26708	-3e-006	1.72132e-014	13.8124	13.0556	2.60528	1.80812	-6.99636	-0.429945	3.49907	-3.84838	-4.90176	6.78868	-0	-1e-006	13.6269	-0.468903	-0.366512	-1.21678	-3.57683	-0.934284	-2.61396	0.775266	-10.7183	0.144193	-42.0902	21.5246	18.2123	-3.25671	1.61816	-26.3938	-7e-006	-1.8757	-6.42802	7.9331	11.6212	-1.60791	45.092	-20.5526	17.7874	3.23425	-1.04447	-17.8786	8e-006	-2.25186	-5.31196	-9.78437	6.97216	17.7666	4.37231	-12.2602	-31.5032
0.695235	-2.91011	0.868787	86.5296	-0.281753	-0.446279	-4.88746	-5.24754	1.16961	6.53478	0.809203	7.02844	5.48144	6.37854	4.18045	-2.2e-005	1e-006	13.808	12.8839	2.57236	1.8151	-6.85651	-0.412108	3.42318	-3.82505	-4.86936	6.77425	1.3e-005	-2e-006	13.6117	-0.468474	-0.344979	-1.24207	-3.58015	-0.939094	-2.68087	0.78842	-10.7297	0.146793	-42.1231	21.3989	18.1481	-3.32254	1.64523	-26.3147	-0	-1.88387	-6.4361	7.9283	11.6206	-1.60684	45.0725	-20.5528	17.842	3.17607	-1.02662	-17.8946	-1.2e-005	-2.19977	-5.32012	-9.74951	6.93939	17.7832	4.78252	-12.2284	-31.2139
0.694761	-2.90963	0.86871	86.5513	-0.301107	-0.372741	-4.93905	-5.26078	1.09564	6.54795	0.8168	7.0795	5.49372	6.37881	4.11794	-7e-006	2e-006	13.8182	12.6797	2.53572	1.83193	-6.68862	-0.392109	3.33979	-3.80702	-4.84447	6.76379	-3e-006	-2.54824e-014	13.6065	-0.458092	-0.308405	-1.25706	-3.55325	-0.960092	-2.73757	0.795509	-10.7297	0.148117	-42.1092	21.2681	18.0536	-3.54576	1.75324	-26.2779	-2e-006	-2.18638	-6.27005	7.93805	11.6175	-1.60842	45.0975	-20.5453	17.8994	3.17737	-1.02545	-17.8686	-2e-006	-2.18603	-5.29243	-9.69768	6.90773	17.8041	5.36988	-12.1692	-30.901
0.694208	-2.90916	0.868651	86.5496	-0.306411	-0.310024	-4.95549	-5.29214	1.07594	6.55482	0.814164	7.04951	5.50045	6.38141	4.09437	1.5e-005	2e-006	13.8224	12.5921	2.49282	1.8421	-6.62821	-0.3815	3.27943	-3.79749	-4.82789	6.73857	2e-006	-1e-006	13.6095	-0.434805	-0.296478	-1.29145	-3.51295	-0.987374	-2.7157	0.798986	-10.7376	0.14887	-42.1128	21.1924	17.982	-3.33023	1.65314	-26.3712	6e-006	-2.04662	-6.37936	7.94224	11.6374	-1.612	45.13	-20.5832	17.9198	3.14333	-1.01171	-17.8237	-3e-006	-2.24156	-5.27218	-9.65296	6.87778	17.962	6.09381	-12.1306	-30.8354
0.69355	-2.90874	0.868604	86.538	-0.318148	-0.229361	-4.99516	-5.3231	1.03516	6.59008	0.814333	7.01328	5.5069	6.38692	4.08542	-3e-006	-1e-006	13.8175	12.6015	2.4466	1.79256	-6.64004	-0.382924	3.28575	-3.78605	-4.80735	6.70425	-1.3e-005	3e-006	13.6083	-0.416923	-0.286824	-1.29312	-3.49532	-1.00289	-2.73652	0.852653	-10.7336	0.158813	-42.1282	21.1283	17.9373	-3.21643	1.60734	-26.5255	-0	-1.9808	-6.45547	7.95692	11.6551	-1.61744	45.1354	-20.6184	17.9198	3.05207	-0.979807	-17.7816	-1.1e-005	-2.32548	-5.29393	-9.5767	6.80989	18.1831	6.92539	-12.0423	-30.9353
0.69279	-2.90835	0.868578	86.5506	-0.340503	-0.154786	-5.01796	-5.34804	0.974698	6.57572	0.813892	7.02481	5.52455	6.40343	4.06696	-0	0	13.8176	12.5881	2.40407	1.73742	-6.64182	-0.386467	3.31518	-3.7719	-4.78562	6.68304	1e-005	-1e-006	13.5932	-0.404998	-0.261179	-1.31635	-3.43217	-1.04869	-2.67883	0.798255	-10.7175	0.14846	-42.1607	21.116	17.9089	-3.21386	1.6155	-26.66	-7e-006	-2.02805	-6.46788	7.94613	11.6564	-1.6154	45.1264	-20.6595	17.8671	3.02223	-0.96881	-17.7576	4e-006	-2.35972	-5.31061	-9.53348	6.7837	18.4068	7.74214	-11.9551	-31.1809
0.691931	-2.90791	0.868551	86.597	-0.362194	-0.088753	-5.07447	-5.38024	0.921938	6.57687	0.815265	7.03532	5.53176	6.40585	4.04041	6e-006	1e-006	13.8175	12.6093	2.36621	1.71509	-6.71793	-0.389354	3.3018	-3.7678	-4.77693	6.66288	8e-006	8.22081e-014	13.5895	-0.400478	-0.256861	-1.29229	-3.40269	-1.0766	-2.66631	0.74306	-10.7017	0.137991	-42.166	21.1277	17.8944	-3.51361	1.77144	-26.7231	-5e-006	-2.31746	-6.31936	7.93904	11.6228	-1.60935	45.1448	-20.6417	17.8181	3.08815	-0.992271	-17.796	-8e-006	-2.38465	-5.30577	-9.54269	6.86126	18.5066	8.73668	-11.994	-31.2756
